# xmcd
#
# Track frame offsets:
#	150
#	19479
#	42728
#	70953
#	88212
#	104801
#	127130
#	160946
#	177108
#
# Disc length: 2775 seconds
#
# Revision: 0
# Processed by: cddbd v1.5.1PL0 Copyright (c) Steve Scherf et al.
# Submitted via: audiograbber 1.83.01
#
DISCID=890ad509
DTITLE=John Mayall  - Back To The Roots (1)
DYEAR=1970
DGENRE=
TTITLE0=01 - Prisons On The Road
TTITLE1=02 - My Children
TTITLE2=03 - Accidental Suicide
TTITLE3=04 - Groupie Girl
TTITLE4=05 - Blue Fox
TTITLE5=06 - Home Again
TTITLE6=07 - Television Eye
TTITLE7=08 - Marriage Madness
TTITLE8=09 - Looking At Tomorrow
EXTD=
EXTT0=
EXTT1=
EXTT2=
EXTT3=
EXTT4=
EXTT5=
EXTT6=
EXTT7=
EXTT8=
PLAYORDER=
